<?xml version="1.0" encoding="utf-8"?>
<!-- Generator: Adobe Illustrator 15.1.0, SVG Export Plug-In . SVG Version: 6.00 Build 0)  -->
<!DOCTYPE svg PUBLIC "-//W3C//DTD SVG 1.1//EN" "http://www.w3.org/Graphics/SVG/1.1/DTD/svg11.dtd">
<svg version="1.1" id="Слой_1" xmlns="http://www.w3.org/2000/svg" xmlns:xlink="http://www.w3.org/1999/xlink" x="0px" y="0px"
	 width="200px" height="83.668px" viewBox="0 0 200 83.668" enable-background="new 0 0 200 83.668" xml:space="preserve">
<path fill="#00408E" d="M27.303,73.489h3.343c0.972,0,2.896,0.133,2.398,2.32c-0.395,1.712-1.88,2.049-3.465,2.049h-3.28
	L27.303,73.489L27.303,73.489z M28.845,66.743h9.246l0.799-3.535H25.621L21.47,81.388h8.151c3.949,0,6.888-1.765,7.736-5.479
	c1.327-5.822-3.717-5.945-5.127-5.945h-4.125L28.845,66.743z"/>
<polygon fill="#00408E" points="53.83,70.422 53.067,73.78 44.724,73.78 43.794,77.858 53.502,77.858 52.693,81.387 38.96,81.387 
	43.108,63.208 56.606,63.208 55.793,66.743 46.325,66.743 45.486,70.422 "/>
<path fill="#00408E" d="M54.404,77.858c3.668,0.521,4.59-2.911,5.339-5.977l2.103-8.674H74.48l-4.155,18.18h-4.02l3.35-14.645
	h-4.809l-1.573,6.34c-0.875,3.502-2.749,9.379-9.673,8.305L54.404,77.858z"/>
<polygon fill="#00408E" points="75.919,66.743 76.723,63.208 91.065,63.208 90.259,66.743 85.113,66.743 81.77,81.387 
	77.748,81.387 81.091,66.743 "/>
<polygon fill="#00408E" points="103.96,70.422 103.197,73.78 94.853,73.78 93.921,77.858 103.627,77.858 102.825,81.387 
	89.079,81.387 93.234,63.208 106.729,63.208 105.919,66.743 96.454,66.743 95.61,70.422 "/>
<path fill="#00408E" d="M104.529,77.858c3.664,0.521,4.591-2.911,5.345-5.977l2.099-8.674h12.629l-4.147,18.18h-4.019l3.34-14.645
	h-4.807l-1.568,6.34c-0.875,3.502-2.752,9.379-9.676,8.305L104.529,77.858z"/>
<polygon fill="#00408E" points="139.082,70.422 138.316,73.78 129.975,73.78 129.045,77.858 138.755,77.858 137.945,81.387 
	124.207,81.387 128.355,63.208 141.854,63.208 141.042,66.743 131.577,66.743 130.742,70.422 "/>
<polygon fill="#00408E" points="154.436,63.208 159.172,63.208 150.423,71.518 155.406,81.387 150.484,81.387 146.465,72.497 
	146.41,72.497 144.383,81.387 140.361,81.387 144.51,63.208 148.537,63.208 146.787,70.84 146.837,70.84 "/>
<path fill="#00408E" d="M165.512,78.379c-2.244,0-3.99-1.322-2.904-6.08c0.942-4.156,2.918-6.074,5.679-6.074
	c4.124,0,3.278,4.461,2.905,6.074C170.846,73.827,169.605,78.379,165.512,78.379L165.512,78.379z M164.712,81.904
	c5.869,0,9.563-4.108,10.823-9.604c1.254-5.512-0.568-9.615-6.443-9.615c-6.729,0-9.865,5.385-10.822,9.615
	C157.297,76.532,157.975,81.904,164.712,81.904z"/>
<polyline fill="none" stroke="#000000" stroke-width="0.216" stroke-miterlimit="22.9256" points="195.854,81.387 195.854,81.387 
	195.854,81.387 195.854,81.387 "/>
<polyline fill="none" stroke="#000000" stroke-width="0.216" stroke-miterlimit="22.9256" points="200,63.208 200,63.208 
	200,63.208 200,63.208 "/>
<polyline fill="none" stroke="#000000" stroke-width="0.216" stroke-miterlimit="22.9256" points="195.854,81.387 195.854,81.387 
	195.854,81.387 195.854,81.387 "/>
<polygon fill="#00408E" points="183.447,68.4 183.376,68.4 180.409,81.387 176.389,81.387 180.534,63.208 186.191,63.208 
	187.413,75.696 194.343,63.208 200,63.208 195.854,81.387 191.834,81.387 194.791,68.4 194.717,68.4 187.48,81.387 184.751,81.387 
	"/>
<path fill="#33B4EE" d="M74.495,6.445c-0.203-0.028-0.405-0.065-0.597-0.093C63.544,4.777,52.431,4.977,41.152,7.218
	c0.75-1.216,1.503-2.416,2.275-3.582c0.083-0.13,0.163-0.261,0.251-0.395c0.156-0.302,0.252-0.638,0.252-1.01
	C43.931,1.004,42.933,0,41.696,0c-0.584,0-1.118,0.236-1.512,0.602c-0.107,0.139-0.226,0.271-0.342,0.396
	c-2.146,2.496-4.229,5.178-6.241,8.027c-12.34,3.452-23.341,9.057-32.467,16.122c-0.063,0.052-0.129,0.101-0.203,0.152
	C0.368,25.75,0,26.439,0,27.222c0,1.365,1.111,2.471,2.471,2.471c0.401,0,0.786-0.103,1.118-0.281
	c0.139-0.08,0.275-0.173,0.408-0.261c7.087-4.638,15.089-8.45,23.808-11.174c-9.526,16.088-17.1,36.242-21.654,58.82
	c-0.115,0.357-0.198,0.742-0.235,1.131c-0.013,0.154-0.03,0.32-0.03,0.48c0,2.907,2.362,5.26,5.26,5.26
	c2.348,0,4.205-1.551,4.875-3.674c0.16-0.505,0.263-0.953,0.384-1.586c0-0.008,0-0.008,0-0.008
	c1.403-9.036,3.291-17.734,5.598-26.02c1.241-4.475,2.611-8.827,4.09-13.042c0.182-0.654,0.414-1.287,0.683-1.901
	c2.292-5.232,7.515-8.9,13.594-8.9c8.198,0,14.84,6.653,14.84,14.844c0,2.563-0.649,4.979-1.797,7.08
	c-0.162,0.3-0.332,0.593-0.514,0.863c-0.321,0.695-0.514,1.455-0.514,2.26c0,2.927,2.378,5.302,5.304,5.302
	c1.777,0,3.342-0.88,4.304-2.216c0.104-0.172,0.215-0.332,0.319-0.504c2.143-3.448,3.382-7.527,3.382-11.896
	c0-12.484-10.118-22.598-22.594-22.598c-4.045,0-7.833,1.063-11.119,2.922c1.39-3.063,2.836-6.024,4.334-8.883
	c12.489-2.737,24.819-2.96,36.172-1.032c0.212,0.027,0.428,0.076,0.643,0.112c0.133,0.014,0.265,0.023,0.401,0.023
	c2.351,0,4.248-1.911,4.248-4.241C77.777,8.561,76.372,6.881,74.495,6.445z"/>
<path fill="#FFFFFF" d="M3.206,27.944c0,0-0.231,0.152-0.288,0.193c-0.538,0.351-1.061-0.217-0.434-0.653
	c8.231-5.939,17.736-10.6,27.874-13.655c-0.495,0.752-0.973,1.526-1.443,2.301C19.679,18.855,11.049,22.816,3.206,27.944z"/>
<path fill="#FFFFFF" d="M72.919,13.271c-0.066,0-0.125-0.002-0.192-0.016h-0.003c-11.109-1.764-23.568-1.614-35.524,0.81
	c0.418-0.779,0.847-1.544,1.284-2.311c11.159-2.353,22.637-2.736,33.408-1.101c0,0,0.673,0.12,1.247,0.239v0.001
	c0.563,0.098,0.992,0.585,0.992,1.178C74.13,12.739,73.585,13.271,72.919,13.271z"/>
<path fill="#33B4EE" d="M46.674,45.223c1.667-5.746,0.629-11.363-2.235-12.964l-6.455,22.75c0.785,0.017,1.62-0.213,2.466-0.68
	C43.09,52.885,45.47,49.389,46.674,45.223L46.674,45.223z M34.112,41.593c1.642-5.691,5.46-9.853,8.696-9.771l-6.447,22.751
	c-0.724-0.396-1.36-1.063-1.859-1.954C33.057,49.977,32.908,45.758,34.112,41.593L34.112,41.593z M32.496,41.124
	c-1.349,4.641-1.15,9.248,0.539,12.3c0.144,0.26,0.304,0.506,0.465,0.748c-4.639-2.976-6.986-8.742-5.375-14.317
	c1.601-5.549,6.631-9.156,12.128-9.209C37.038,32.009,34.007,35.901,32.496,41.124L32.496,41.124z M47.31,32.672
	c4.625,2.984,6.958,8.729,5.352,14.295c-1.605,5.553-6.665,9.168-12.171,9.209c0.253-0.109,0.517-0.229,0.777-0.373
	c3.052-1.682,5.682-5.459,7.022-10.109C49.805,40.47,49.313,35.546,47.31,32.672z"/>
</svg>
